<svg width="217" height="52" viewBox="0 0 217 52" fill="none" xmlns="http://www.w3.org/2000/svg">
<path d="M0.817492 18H2.66549L5.61349 8.892C6.20749 7.044 6.73549 5.328 7.26349 3.414H7.35149C7.90149 5.306 8.40749 7.044 9.00149 8.892L11.9275 18H13.8415L8.31949 1.896H6.31749L0.817492 18ZM3.61149 12.94H10.9815V11.488H3.61149V12.94ZM20.9303 23.104H22.7123V19.012L22.6683 16.9C23.7903 17.802 24.9343 18.308 26.0123 18.308C28.7623 18.308 31.2043 15.954 31.2043 11.884C31.2043 8.21 29.5543 5.834 26.4743 5.834C25.0663 5.834 23.7243 6.626 22.6243 7.528H22.5803L22.4043 6.12H20.9303V23.104ZM25.7703 16.79C24.9563 16.79 23.8563 16.438 22.7123 15.492V9.046C23.9443 7.946 25.0003 7.352 26.0563 7.352C28.4103 7.352 29.3343 9.2 29.3343 11.906C29.3343 14.92 27.8163 16.79 25.7703 16.79ZM36.4235 18.308C36.9295 18.308 37.2155 18.22 37.4795 18.132L37.2375 16.746C36.9955 16.79 36.9075 16.79 36.7975 16.79C36.4895 16.79 36.2475 16.548 36.2475 15.954V0.51H34.4655V15.822C34.4655 17.428 35.0375 18.308 36.4235 18.308ZM43.316 18.308C44.812 18.308 46.154 17.516 47.298 16.57H47.386L47.54 18H49.014V10.63C49.014 7.792 47.87 5.834 44.966 5.834C43.052 5.834 41.402 6.692 40.368 7.374L41.072 8.628C41.996 8.012 43.272 7.33 44.702 7.33C46.748 7.33 47.232 8.892 47.21 10.498C42.106 11.07 39.84 12.346 39.84 14.942C39.84 17.12 41.358 18.308 43.316 18.308ZM43.778 16.834C42.568 16.834 41.6 16.284 41.6 14.832C41.6 13.226 43.008 12.192 47.21 11.73V15.184C46 16.262 44.988 16.834 43.778 16.834ZM57.4756 18.308C58.9276 18.308 60.2696 17.714 61.3256 16.79L60.5336 15.58C59.7636 16.262 58.7736 16.79 57.6516 16.79C55.3636 16.79 53.8236 14.898 53.8236 12.082C53.8236 9.244 55.4516 7.33 57.6956 7.33C58.6636 7.33 59.4556 7.792 60.1596 8.43L61.0836 7.242C60.2696 6.494 59.1696 5.834 57.6076 5.834C54.5936 5.834 51.9536 8.122 51.9536 12.082C51.9536 16.02 54.3516 18.308 57.4756 18.308ZM68.1994 18.308C69.8274 18.308 71.0594 17.758 72.0714 17.098L71.4114 15.888C70.5314 16.482 69.5854 16.856 68.3974 16.856C66.0434 16.856 64.4374 15.096 64.3274 12.478H72.4674C72.5114 12.17 72.5554 11.774 72.5554 11.4C72.5554 7.968 70.8394 5.834 67.8474 5.834C65.1414 5.834 62.5454 8.21 62.5454 12.082C62.5454 15.998 65.0534 18.308 68.1994 18.308ZM64.3054 11.158C64.5694 8.694 66.1314 7.286 67.8694 7.286C69.8054 7.286 70.9494 8.628 70.9494 11.158H64.3054ZM84.996 18.308C87.9 18.308 90.452 16.02 90.452 12.082C90.452 8.122 87.9 5.834 84.996 5.834C82.092 5.834 79.518 8.122 79.518 12.082C79.518 16.02 82.092 18.308 84.996 18.308ZM84.996 16.79C82.84 16.79 81.388 14.898 81.388 12.082C81.388 9.244 82.84 7.33 84.996 7.33C87.13 7.33 88.604 9.244 88.604 12.082C88.604 14.898 87.13 16.79 84.996 16.79ZM93.6764 18H95.4584V9.31C96.7124 8.034 97.5924 7.396 98.8464 7.396C100.518 7.396 101.222 8.408 101.222 10.696V18H103.004V10.454C103.004 7.418 101.86 5.834 99.3744 5.834C97.7464 5.834 96.5144 6.736 95.3704 7.88H95.3264L95.1504 6.12H93.6764V18ZM108.955 18.308C109.461 18.308 109.747 18.22 110.011 18.132L109.769 16.746C109.527 16.79 109.439 16.79 109.329 16.79C109.021 16.79 108.779 16.548 108.779 15.954V0.51H106.997V15.822C106.997 17.428 107.569 18.308 108.955 18.308ZM113.185 23.192C115.495 23.192 116.727 21.388 117.519 19.122L122.029 6.12H120.269L118.047 12.918C117.739 13.974 117.365 15.184 117.035 16.284H116.925C116.529 15.184 116.111 13.974 115.737 12.918L113.207 6.12H111.359L116.155 18.066L115.869 19.012C115.341 20.552 114.483 21.696 113.097 21.696C112.767 21.696 112.415 21.608 112.173 21.52L111.821 22.95C112.195 23.104 112.657 23.192 113.185 23.192ZM131.167 18H133.257L135.017 11.422C135.347 10.278 135.589 9.156 135.853 7.968H135.963C136.249 9.156 136.491 10.256 136.799 11.378L138.603 18H140.803L144.037 6.12H142.321L140.517 13.182C140.231 14.326 139.989 15.382 139.747 16.482H139.659C139.351 15.382 139.087 14.326 138.801 13.182L136.865 6.12H135.061L133.147 13.182C132.861 14.326 132.597 15.382 132.333 16.482H132.223C131.981 15.382 131.761 14.326 131.519 13.182L129.649 6.12H127.801L131.167 18ZM151.322 18.308C152.95 18.308 154.182 17.758 155.194 17.098L154.534 15.888C153.654 16.482 152.708 16.856 151.52 16.856C149.166 16.856 147.56 15.096 147.45 12.478H155.59C155.634 12.17 155.678 11.774 155.678 11.4C155.678 7.968 153.962 5.834 150.97 5.834C148.264 5.834 145.668 8.21 145.668 12.082C145.668 15.998 148.176 18.308 151.322 18.308ZM147.428 11.158C147.692 8.694 149.254 7.286 150.992 7.286C152.928 7.286 154.072 8.628 154.072 11.158H147.428ZM163.565 18H165.325V14.854L167.657 12.126L171.243 18H173.179L168.691 10.894L172.629 6.12H170.627L165.391 12.61H165.325V0.51H163.565V18ZM175.489 18H177.271V9.31C178.525 8.034 179.405 7.396 180.659 7.396C182.331 7.396 183.035 8.408 183.035 10.696V18H184.817V10.454C184.817 7.418 183.673 5.834 181.187 5.834C179.559 5.834 178.327 6.736 177.183 7.88H177.139L176.963 6.12H175.489V18ZM193.363 18.308C196.267 18.308 198.819 16.02 198.819 12.082C198.819 8.122 196.267 5.834 193.363 5.834C190.459 5.834 187.885 8.122 187.885 12.082C187.885 16.02 190.459 18.308 193.363 18.308ZM193.363 16.79C191.207 16.79 189.755 14.898 189.755 12.082C189.755 9.244 191.207 7.33 193.363 7.33C195.497 7.33 196.971 9.244 196.971 12.082C196.971 14.898 195.497 16.79 193.363 16.79ZM203.785 18H205.875L207.635 11.422C207.965 10.278 208.207 9.156 208.471 7.968H208.581C208.867 9.156 209.109 10.256 209.417 11.378L211.221 18H213.421L216.655 6.12H214.939L213.135 13.182C212.849 14.326 212.607 15.382 212.365 16.482H212.277C211.969 15.382 211.705 14.326 211.419 13.182L209.483 6.12H207.679L205.765 13.182C205.479 14.326 205.215 15.382 204.951 16.482H204.841C204.599 15.382 204.379 14.326 204.137 13.182L202.267 6.12H200.419L203.785 18ZM34.1476 42.982V45.336H52.6056V42.982H34.1476ZM41.8476 44.5V51.98H44.7516V44.5H41.8476ZM43.3216 32.268C38.9876 32.268 35.9736 34.072 35.9736 36.866C35.9736 39.638 38.9876 41.42 43.3216 41.42C47.6776 41.42 50.6916 39.638 50.6916 36.866C50.6916 34.072 47.6776 32.268 43.3216 32.268ZM43.3216 34.6C46.0056 34.6 47.6776 35.392 47.6776 36.866C47.6776 38.318 46.0056 39.11 43.3216 39.11C40.6596 39.11 38.9656 38.318 38.9656 36.866C38.9656 35.392 40.6596 34.6 43.3216 34.6ZM69.2139 31.85V51.694H70.8199V31.85H69.2139ZM55.7939 45.512V46.876H57.4219C60.7879 46.876 63.7799 46.744 67.4319 46.15L67.2559 44.808C63.6699 45.38 60.6999 45.512 57.4219 45.512H55.7939ZM55.7499 33.742V35.084H63.2299V39.374H55.7939V46.04H57.4219V40.716H64.8579V33.742H55.7499ZM75.7241 33.676V42.784H84.7661V33.676H75.7241ZM83.1821 34.996V41.442H77.3081V34.996H83.1821ZM88.5721 31.85V46.392H90.2001V31.85H88.5721ZM89.6721 37.944V39.308H93.1701V37.944H89.6721ZM77.9461 49.868V51.232H91.1241V49.868H77.9461ZM77.9461 45.028V50.418H79.5741V45.028H77.9461ZM105.217 32.994C102.115 32.994 99.8709 35.81 99.8709 40.254C99.8709 44.742 102.115 47.558 105.217 47.558C108.319 47.558 110.563 44.742 110.563 40.254C110.563 35.81 108.319 32.994 105.217 32.994ZM105.217 35.656C106.735 35.656 107.769 37.262 107.769 40.254C107.769 43.29 106.735 44.918 105.217 44.918C103.699 44.918 102.687 43.29 102.687 40.254C102.687 37.262 103.699 35.656 105.217 35.656ZM112.785 31.586V51.958H115.733V31.586H112.785ZM115.073 39.264V41.684H118.681V39.264H115.073ZM122.683 37.922V39.264H136.103V37.922H122.683ZM120.219 42.014V43.378H138.193V42.014H120.219ZM122.683 32.598V38.604H124.311V32.598H122.683ZM122.573 49.846V51.188H136.213V49.846H122.573ZM122.573 45.424V50.198H124.201V45.424H122.573ZM154.244 44.258C149.844 44.258 147.028 45.71 147.028 48.13C147.028 50.506 149.844 51.958 154.244 51.958C158.644 51.958 161.46 50.506 161.46 48.13C161.46 45.71 158.644 44.258 154.244 44.258ZM154.244 46.458C156.994 46.458 158.556 47.03 158.556 48.13C158.556 49.208 156.994 49.758 154.244 49.758C151.494 49.758 149.932 49.208 149.932 48.13C149.932 47.03 151.494 46.458 154.244 46.458ZM147.248 32.488V34.798H160.14V32.488H147.248ZM145.18 40.672V43.004H163.528V40.672H145.18ZM151.978 37.13V41.266H154.882V37.13H151.978ZM158.446 32.488V34.16C158.446 35.744 158.446 37.218 157.896 39.308L160.8 39.616C161.35 37.504 161.35 35.766 161.35 34.16V32.488H158.446ZM179.322 31.872V46.392H180.95V31.872H179.322ZM180.422 37.966V39.33H183.92V37.966H180.422ZM173.932 33.412V34.094C173.932 38.01 170.676 41.156 165.66 42.74L166.364 44.082C172.018 42.256 175.648 38.494 175.648 33.412H173.932ZM166.474 33.412V34.754H174.746V33.412H166.474ZM168.674 49.868V51.232H181.852V49.868H168.674ZM168.674 44.918V50.396H170.302V44.918H168.674Z" fill="url(#paint0_linear_62_355)"/>
<defs>
<linearGradient id="paint0_linear_62_355" x1="39.5" y1="8.52778" x2="181.272" y2="39.3431" gradientUnits="userSpaceOnUse">
<stop stop-color="#C09FDC"/>
<stop offset="1" stop-color="#34B1FF"/>
</linearGradient>
</defs>
</svg>
