<?xml version="1.0" standalone="no"?>
<!DOCTYPE svg PUBLIC "-//W3C//DTD SVG 20010904//EN"
 "http://www.w3.org/TR/2001/REC-SVG-20010904/DTD/svg10.dtd">
<svg version="1.0" xmlns="http://www.w3.org/2000/svg"
 width="32.000000pt" height="32.000000pt" viewBox="0 0 32.000000 32.000000"
 preserveAspectRatio="xMidYMid meet">

<g transform="translate(0.000000,32.000000) scale(0.100000,-0.100000)"
fill="#000000" stroke="none">
<path d="M154 306 c-9 -24 4 -48 23 -44 12 2 18 12 18 28 0 29 -32 41 -41 16z"/>
<path d="M98 233 c-33 -13 -38 -19 -38 -49 0 -24 5 -34 15 -34 9 0 15 9 15 24
0 13 7 26 15 30 12 4 14 0 10 -17 -11 -50 -35 -169 -35 -178 0 -5 6 -9 14 -9
9 0 19 20 27 55 7 30 15 55 19 55 17 0 30 -28 30 -67 0 -32 4 -43 15 -43 11 0
15 13 15 54 0 35 -5 58 -15 66 -15 13 -21 60 -7 60 4 0 16 -7 26 -15 11 -8 28
-15 38 -15 27 0 22 27 -6 34 -14 3 -34 20 -46 36 -24 34 -39 36 -92 13z"/>
</g>
</svg>
